PathFileType	4	(X/Y/Z)	C:\Users\Basilio\Documents\Thesis Gigler\squatting_fais\c3dfiles\077\SJ_pre3\markers_experimental.trc
DataRate	CameraRate	NumFrames	NumMarkers	Units	OrigDataRate	OrigDataStartFrame	OrigNumFrames
200.000000	200.000000	4	60	mm	200.000000	0	1422
Frame#	Time	FHD			LBHD			RBHD			C7			T10			CLAV			LSHO			LUUPA			LMUPA			LDUPA			LLEP			LMEP			LRAD			LUL			LRFIN			RSHO			RUPA1			RMUPA			RDUPA			RLEP			RMEP			RRAD			RUL			RUFIN			LASI			RASI			USACR			LSACR			RSACR			LTHI1			LTHI2			LTHI3			LTHI4			LLFC			LMFC			LTIB1			LTIB2			LTIB3			LTIB4			LLMAL			LHEE			LMT1			LMT2			LMT5			RTHI			RTHI2			RTHI3			RTHI4			RLFC			RMFC			RTIB1			RTIB2			RTIB3			RTIB4			RLMAL			RMMAL			RHEE			RMT1			RMT2			RMT5			
		X1	Y1	Z1	X2	Y2	Z2	X3	Y3	Z3	X4	Y4	Z4	X5	Y5	Z5	X6	Y6	Z6	X7	Y7	Z7	X8	Y8	Z8	X9	Y9	Z9	X10	Y10	Z10	X11	Y11	Z11	X12	Y12	Z12	X13	Y13	Z13	X14	Y14	Z14	X15	Y15	Z15	X16	Y16	Z16	X17	Y17	Z17	X18	Y18	Z18	X19	Y19	Z19	X20	Y20	Z20	X21	Y21	Z21	X22	Y22	Z22	X23	Y23	Z23	X24	Y24	Z24	X25	Y25	Z25	X26	Y26	Z26	X27	Y27	Z27	X28	Y28	Z28	X29	Y29	Z29	X30	Y30	Z30	X31	Y31	Z31	X32	Y32	Z32	X33	Y33	Z33	X34	Y34	Z34	X35	Y35	Z35	X36	Y36	Z36	X37	Y37	Z37	X38	Y38	Z38	X39	Y39	Z39	X40	Y40	Z40	X41	Y41	Z41	X42	Y42	Z42	X43	Y43	Z43	X44	Y44	Z44	X45	Y45	Z45	X46	Y46	Z46	X47	Y47	Z47	X48	Y48	Z48	X49	Y49	Z49	X50	Y50	Z50	X51	Y51	Z51	X52	Y52	Z52	X53	Y53	Z53	X54	Y54	Z54	X55	Y55	Z55	X56	Y56	Z56	X57	Y57	Z57	X58	Y58	Z58	X59	Y59	Z59	X60	Y60	Z60	

1	0	-267.4982299804688	1832.272583007813	-927.916442871094	-393.4126892089845	1703.15380859375	-990.8348388671877	-396.9876708984376	1704.893432617188	-845.1033935546877	-438.0088195800782	1571.373901367188	-918.4822387695315	-455.6289978027345	1241.396362304688	-912.8756103515627	-267.3181762695313	1521.856811523438	-918.2905883789065	-337.7753295898438	1546.626708984375	-1109.556274414063	-384.7786560058595	1403.951904296875	-1271.027099609375	-348.1174621582032	1368.167602539063	-1275.316772460938	-393.184295654297	1351.873413085938	-1314.325805664063	-386.2813720703126	1290.413818359375	-1347.03662109375	-461.4370422363282	1264.67431640625	-1310.12255859375	-341.8192749023438	1066.896118164063	-1142.6015625	-297.3468933105469	1026.244018554688	-1196.572631835938	-294.4729614257813	1048.014770507813	-1087.1240234375	-309.5638427734376	1552.662231445313	-726.4934692382814	-376.0592346191407	1419.333740234375	-553.5833740234376	-346.5448913574219	1379.066650390625	-551.4147338867189	-388.3919982910157	1364.48828125	-510.591766357422	-387.8013305664064	1299.25	-481.565643310547	-467.8570861816407	1279.6279296875	-515.3038330078126	-362.0404357910157	1070.193481445313	-666.6054077148439	-301.1563415527344	1044.278686523438	-621.7332153320314	-308.8932495117188	1071.338134765625	-720.0462646484376	-259.4049072265626	1036.591796875	-1047.171508789063	-265.2915954589844	1049.8955078125	-771.2713012695315	-468.2100219726564	1128.919555664063	-907.2178344726565	-475.7811889648439	1098.145141601563	-935.1677246093752	-478.0555725097657	1097.187377929688	-880.0137329101565	-372.4025878906251	837.7989501953127	-1126.858032226563	-356.5040588378907	755.4257202148439	-1138.4990234375	-309.1436767578126	750.2163696289064	-1134.674560546875	-391.8262329101564	705.8930664062501	-1128.5302734375	-382.8489685058594	557.5918579101564	-1128.43505859375	-353.1367492675782	509.454803466797	-1007.443237304688	-337.2012939453126	336.1846313476563	-1126.896240234375	-384.9322509765626	305.1417846679688	-1197.862060546875	-345.2998352050782	299.2575378417969	-1173.55029296875	-338.4125366210938	213.2808380126954	-1162.559204101563	-402.787567138672	100.957504272461	-1217.097412109375	-437.7102050781251	45.70206832885743	-1163.29833984375	-224.2168273925782	59.7290496826172	-1207.3740234375	-235.5100860595704	61.24417114257814	-1248.199829101563	-349.7275695800782	100.2306900024414	-1144.015502929688	-411.842010498047	733.7304077148439	-686.5651855468751	-382.3175964355469	674.9238891601564	-671.7771606445314	-348.4526367187501	672.3654174804689	-670.0465087890626	-415.7774047851564	601.7898559570314	-686.1467895507814	-419.3362426757814	533.0950927734376	-679.1597900390626	-355.6050415039063	496.9053649902345	-789.179382324219	-359.9114990234376	406.7909545898439	-653.2658081054689	-423.1392211914064	327.6488647460938	-622.7174682617189	-376.1759643554688	324.6577453613282	-628.3930053710939	-354.9401855468751	275.4343872070313	-653.4296875000001	-414.6994628906251	97.46753692626956	-597.7976684570314	-359.3056640625001	94.87728118896486	-672.7451782226564	-450.3182983398439	45.11554718017579	-662.0015258789064	-239.8793334960938	60.30772399902345	-575.9066772460939	-255.1001586914063	61.58961486816408	-541.4264526367189	-285.6114807128907	41.4690284729004	-499.9859619140626	
2	0.005	-267.4183959960938	1832.2470703125	-927.8897094726565	-393.4052124023439	1703.234008789063	-990.8741455078127	-397.018035888672	1704.884399414063	-845.1536865234377	-437.9686584472657	1571.395263671875	-918.4124145507815	-455.575164794922	1241.41552734375	-912.8743286132815	-267.2348632812501	1521.8115234375	-918.2534179687502	-337.7110595703126	1546.597534179688	-1109.511962890625	-384.7673645019532	1403.927978515625	-1271.033447265625	-348.1483459472657	1368.19189453125	-1275.335571289063	-393.2180480957032	1351.888061523438	-1314.324584960938	-386.3304443359376	1290.4208984375	-1347.061889648438	-461.4844360351564	1264.648681640625	-1310.091674804688	-341.8540954589844	1066.8935546875	-1142.625122070313	-297.4245605468751	1026.246459960938	-1196.572265625	-294.4760131835938	1048.029663085938	-1087.156127929688	-309.4835205078126	1552.6171875	-726.4974365234376	-375.9978942871094	1419.331787109375	-553.5741577148439	-346.4907531738282	1379.050659179688	-551.3736572265626	-388.373016357422	1364.476318359375	-510.5620422363282	-387.7942810058595	1299.29345703125	-481.5357971191407	-467.8295288085939	1279.672241210938	-515.2458496093751	-362.0431518554688	1070.21923828125	-666.6255493164064	-301.1549682617188	1044.259033203125	-621.7232666015626	-308.8995666503907	1071.339721679688	-720.0682373046876	-259.4494628906251	1036.546752929688	-1047.1171875	-265.3252563476563	1049.8857421875	-771.3313598632815	-468.1675109863282	1128.955200195313	-907.2384033203127	-475.7940063476564	1098.16552734375	-935.1668701171877	-478.064910888672	1097.177124023438	-879.9802246093752	-372.4988403320313	837.8287353515627	-1126.861328125	-355.4218750000001	754.9543457031251	-1138.029418945313	-309.2292175292969	750.2182617187501	-1134.718872070313	-391.8689575195314	705.9025878906251	-1128.498657226563	-382.7980346679688	557.6217651367189	-1128.415771484375	-352.9632873535157	509.1416015625001	-1007.449890136719	-337.2372131347657	336.1659545898438	-1126.912963867188	-384.8321533203126	305.2206115722657	-1197.867065429688	-345.2723388671876	299.2507629394532	-1173.526245117188	-338.5011596679688	213.2413635253907	-1162.589233398438	-402.7456054687501	100.9310989379883	-1217.166381835938	-437.7371520996095	45.69370651245118	-1163.288330078125	-224.2270812988282	59.72589111328126	-1207.375122070313	-235.4993286132813	61.25419235229494	-1248.229858398438	-349.7302551269532	100.2134323120117	-1144.002685546875	-411.8232421875001	733.7308349609376	-686.5452880859376	-382.3177490234376	674.9442749023439	-671.8230590820314	-348.4493408203126	672.3764038085939	-670.0130004882814	-415.7527770996095	601.8020019531251	-686.1278686523439	-419.3163452148439	533.1240844726564	-679.1176757812501	-355.6216125488282	496.892303466797	-789.1806640625002	-359.9136352539063	406.8136596679689	-653.2606201171876	-423.149383544922	327.6721191406251	-622.6745605468751	-376.1495666503907	324.5598449707032	-628.4285278320314	-354.9014587402344	275.4353942871094	-653.4004516601564	-414.7266845703126	97.45191955566409	-597.7891845703126	-359.2933349609376	94.87378692626955	-672.7612915039064	-450.3475646972657	45.13909149169923	-662.0048828125001	-239.8539733886719	60.29833221435548	-575.9213256835939	-255.0520629882813	61.62527084350587	-541.4074707031251	-285.5662841796876	41.46467208862305	-499.9490356445314	
3	0.01	-267.2613525390626	1832.20068359375	-927.8106689453127	-393.3428955078126	1703.227661132813	-990.8078613281252	-397.0238037109376	1704.97607421875	-845.134948730469	-437.8641967773439	1571.433959960938	-918.3977661132815	-455.573944091797	1241.443359375	-912.8450317382815	-267.2407531738282	1521.750244140625	-918.2669067382815	-337.6716613769532	1546.577392578125	-1109.509521484375	-384.7813720703126	1403.970825195313	-1270.964721679688	-348.2474365234376	1368.159057617188	-1275.344360351563	-393.2445373535157	1351.865844726563	-1314.324829101563	-386.3669433593751	1290.392333984375	-1347.047241210938	-461.5114135742189	1264.692504882813	-1310.0732421875	-341.8877258300782	1066.853149414063	-1142.63232421875	-297.4552612304688	1026.218017578125	-1196.556640625	-294.5735168457032	1047.9873046875	-1087.1845703125	-309.3756103515626	1552.634765625	-726.4827880859376	-375.9674072265626	1419.347290039063	-553.5794677734376	-346.4405822753907	1379.039794921875	-551.3323364257814	-388.3610229492189	1364.4990234375	-510.5581970214845	-387.7959594726564	1299.28076171875	-481.5115356445314	-467.7849121093751	1279.690551757813	-515.2615966796876	-362.0445861816407	1070.222534179688	-666.6026611328126	-301.1603393554688	1044.260131835938	-621.7395629882814	-308.9028320312501	1071.338623046875	-720.0717163085939	-259.4569396972657	1036.534790039063	-1047.199096679688	-265.2990722656251	1049.89697265625	-771.2253417968752	-468.2041015625001	1128.97900390625	-907.1894531250002	-475.7959594726564	1098.169921875	-935.1354980468752	-478.0707397460939	1097.206298828125	-879.9810180664065	-372.6086120605469	837.8057250976565	-1126.77294921875	-355.4354553222657	754.9235229492189	-1138.07421875	-309.2660217285157	750.2292480468751	-1134.682373046875	-391.8901367187501	705.9033813476564	-1128.509765625	-382.8523254394532	557.5977783203126	-1128.449462890625	-353.1806030273438	509.452606201172	-1007.430786132813	-337.2357788085938	336.2107543945313	-1126.909545898438	-384.9044494628907	305.1502990722657	-1197.845825195313	-345.3395996093751	299.2361450195313	-1173.517944335938	-338.4625244140626	213.2471313476563	-1162.517822265625	-402.7711181640626	100.9517517089844	-1217.134765625	-437.733123779297	45.67547988891602	-1163.317260742188	-224.2079010009766	59.72959136962892	-1207.37158203125	-235.4747467041016	61.27719497680665	-1248.226806640625	-349.7203063964844	100.2139053344727	-1144.024169921875	-411.8503417968751	733.7468872070314	-686.5473632812501	-382.3172912597657	674.9858398437501	-671.8068237304689	-348.4543151855469	672.3911743164064	-670.0134277343751	-415.7507629394532	601.8195800781251	-686.1287841796876	-419.3077697753907	533.1367187500001	-679.1157836914064	-355.6900634765626	496.9326171875001	-789.1695556640627	-359.8823547363282	406.8009033203126	-653.2689208984376	-423.1462707519532	327.6392822265626	-622.6715698242189	-376.1042480468751	324.5992126464844	-628.4062500000001	-354.9222717285157	275.4447631835938	-653.3739013671876	-414.7033081054689	97.45175933837893	-597.7858886718751	-359.3074951171876	94.88187408447267	-672.7677612304689	-450.3436279296876	45.13811492919923	-661.9839477539064	-239.8917236328126	60.29634094238283	-575.9027099609376	-255.0931701660157	61.60796356201173	-541.4332275390626	-285.5942382812501	41.45332717895509	-499.9637451171876	
4	0.015	-267.1213989257813	1832.188842773438	-927.7276000976565	-393.2704162597657	1703.350830078125	-990.8814086914065	-397.0238037109376	1704.97607421875	-845.134948730469	-437.7782592773439	1571.38330078125	-918.4173583984377	-455.5493774414064	1241.482055664063	-912.835632324219	-267.1551513671876	1521.7265625	-918.2898559570315	-337.6607971191407	1546.557006835938	-1109.495849609375	-384.7350463867189	1403.939208984375	-1270.946411132813	-348.2318115234376	1368.146362304688	-1275.346435546875	-393.2554016113282	1351.876708984375	-1314.3095703125	-386.3982543945314	1290.416137695313	-1347.032836914063	-461.5543518066407	1264.658935546875	-1310.053466796875	-341.9876403808594	1066.811157226563	-1142.6162109375	-297.5435791015626	1026.222412109375	-1196.578247070313	-294.5800781250001	1047.964111328125	-1087.18896484375	-309.3233642578126	1552.59912109375	-726.4819946289064	-375.9187622070313	1419.3369140625	-553.5612792968751	-346.4055175781251	1379.065673828125	-551.3099975585939	-388.3059692382814	1364.489379882813	-510.5481262207032	-387.7729492187501	1299.273193359375	-481.4947204589845	-467.8052368164064	1279.742309570313	-515.2427978515626	-362.0456848144532	1070.222045898438	-666.5817260742189	-301.1771545410157	1044.2529296875	-621.7687988281251	-308.9442138671876	1071.332763671875	-720.0597534179689	-259.4961853027344	1036.510498046875	-1047.153442382813	-265.2990722656251	1049.89697265625	-771.2253417968752	-468.1664123535157	1128.995971679688	-907.2449951171877	-475.8204345703126	1098.205444335938	-935.1354980468752	-478.0567321777345	1097.224975585938	-879.9827270507815	-372.5642395019532	837.8008422851565	-1126.80029296875	-355.4830627441407	754.9548339843751	-1138.055908203125	-309.3303222656251	750.2292480468751	-1134.724731445313	-391.9815979003907	705.9175415039064	-1128.498413085938	-382.8903198242188	557.5926513671876	-1128.425048828125	-353.2111816406251	509.4482727050782	-1007.449462890625	-337.2542419433594	336.1928100585938	-1126.931884765625	-384.9394531250001	305.1527709960938	-1197.921875	-345.3685913085938	299.2395629882813	-1173.545288085938	-338.4788818359376	213.2565460205079	-1162.553833007813	-402.7312011718751	100.9591369628907	-1217.14404296875	-437.7213134765626	45.72237777709962	-1163.313354492188	-224.1937255859376	59.74168014526369	-1207.36328125	-235.4322814941407	61.28120040893556	-1248.245971679688	-349.7223815917969	100.2220611572266	-1144.032104492188	-411.8236389160157	733.7555541992189	-686.5275268554689	-382.3200073242188	674.9937744140626	-671.8032226562501	-348.4490661621094	672.3965454101564	-670.0154418945314	-415.7708740234376	601.8372192382814	-686.0746459960939	-419.2986450195314	533.1396484375001	-679.0819091796876	-355.6759643554688	496.9144897460939	-789.161804199219	-359.8724670410157	406.8125610351564	-653.2262573242189	-423.1280517578126	327.6546325683594	-622.6778564453126	-376.0903930664063	324.6475524902344	-628.3842163085939	-354.8987121582032	275.4474487304688	-653.3933715820314	-414.6990661621095	97.44218444824222	-597.7969970703126	-359.3075866699219	94.88201141357423	-672.7678222656251	-450.3647460937501	45.1485710144043	-661.9924316406251	-239.8815155029297	60.30355072021486	-575.9083862304689	-255.1002044677735	61.59024810791017	-541.4259643554689	-285.5908508300782	41.47722244262696	-499.996307373047	
